<svg width="530" height="236" viewBox="0 0 530 236" fill="none" xmlns="http://www.w3.org/2000/svg">
<g opacity="0.25">
<path d="M529.5 40C529.5 42.5213 527.806 45.0875 524.319 47.659C520.846 50.2209 515.692 52.713 509.007 55.0989C495.642 59.8685 476.275 64.1724 452.309 67.7899C404.385 75.0237 338.161 79.5 265 79.5C191.839 79.5 125.615 75.0237 77.6913 67.7899C53.7254 64.1724 34.3581 59.8685 20.9931 55.0989C14.3075 52.713 9.15368 50.2209 5.68067 47.659C2.19447 45.0875 0.5 42.5213 0.5 40C0.5 37.4787 2.19447 34.9125 5.68067 32.341C9.15368 29.7791 14.3075 27.287 20.9931 24.9011C34.3581 20.1315 53.7254 15.8276 77.6913 12.2101C125.615 4.97631 191.839 0.5 265 0.5C338.161 0.5 404.385 4.97631 452.309 12.2101C476.275 15.8276 495.642 20.1315 509.007 24.9011C515.692 27.287 520.846 29.7791 524.319 32.341C527.806 34.9125 529.5 37.4787 529.5 40Z" stroke="white"/>
<path d="M529.5 79C529.5 81.5213 527.806 84.0875 524.319 86.659C520.846 89.2209 515.692 91.713 509.007 94.0989C495.642 98.8685 476.275 103.172 452.309 106.79C404.385 114.024 338.161 118.5 265 118.5C191.839 118.5 125.615 114.024 77.6913 106.79C53.7254 103.172 34.3581 98.8685 20.9931 94.0989C14.3075 91.713 9.15368 89.2209 5.68067 86.659C2.19447 84.0875 0.5 81.5213 0.5 79C0.5 76.4787 2.19447 73.9125 5.68067 71.341C9.15368 68.7791 14.3075 66.287 20.9931 63.9011C34.3581 59.1315 53.7254 54.8276 77.6913 51.2101C125.615 43.9763 191.839 39.5 265 39.5C338.161 39.5 404.385 43.9763 452.309 51.2101C476.275 54.8276 495.642 59.1315 509.007 63.9011C515.692 66.287 520.846 68.7791 524.319 71.341C527.806 73.9125 529.5 76.4787 529.5 79Z" stroke="white"/>
<path d="M529.5 118C529.5 120.521 527.806 123.087 524.319 125.659C520.846 128.221 515.692 130.713 509.007 133.099C495.642 137.868 476.275 142.172 452.309 145.79C404.385 153.024 338.161 157.5 265 157.5C191.839 157.5 125.615 153.024 77.6913 145.79C53.7254 142.172 34.3581 137.868 20.9931 133.099C14.3075 130.713 9.15368 128.221 5.68067 125.659C2.19447 123.087 0.5 120.521 0.5 118C0.5 115.479 2.19447 112.913 5.68067 110.341C9.15368 107.779 14.3075 105.287 20.9931 102.901C34.3581 98.1315 53.7254 93.8276 77.6913 90.2101C125.615 82.9763 191.839 78.5 265 78.5C338.161 78.5 404.385 82.9763 452.309 90.2101C476.275 93.8276 495.642 98.1315 509.007 102.901C515.692 105.287 520.846 107.779 524.319 110.341C527.806 112.913 529.5 115.479 529.5 118Z" stroke="white"/>
<path d="M529.5 157C529.5 159.521 527.806 162.087 524.319 164.659C520.846 167.221 515.692 169.713 509.007 172.099C495.642 176.868 476.275 181.172 452.309 184.79C404.385 192.024 338.161 196.5 265 196.5C191.839 196.5 125.615 192.024 77.6913 184.79C53.7254 181.172 34.3581 176.868 20.9931 172.099C14.3075 169.713 9.15368 167.221 5.68067 164.659C2.19447 162.087 0.5 159.521 0.5 157C0.5 154.479 2.19447 151.913 5.68067 149.341C9.15368 146.779 14.3075 144.287 20.9931 141.901C34.3581 137.132 53.7254 132.828 77.6913 129.21C125.615 121.976 191.839 117.5 265 117.5C338.161 117.5 404.385 121.976 452.309 129.21C476.275 132.828 495.642 137.132 509.007 141.901C515.692 144.287 520.846 146.779 524.319 149.341C527.806 151.913 529.5 154.479 529.5 157Z" stroke="white"/>
<path d="M529.5 196C529.5 198.521 527.806 201.087 524.319 203.659C520.846 206.221 515.692 208.713 509.007 211.099C495.642 215.868 476.275 220.172 452.309 223.79C404.385 231.024 338.161 235.5 265 235.5C191.839 235.5 125.615 231.024 77.6913 223.79C53.7254 220.172 34.3581 215.868 20.9931 211.099C14.3075 208.713 9.15368 206.221 5.68067 203.659C2.19447 201.087 0.5 198.521 0.5 196C0.5 193.479 2.19447 190.913 5.68067 188.341C9.15368 185.779 14.3075 183.287 20.9931 180.901C34.3581 176.132 53.7254 171.828 77.6913 168.21C125.615 160.976 191.839 156.5 265 156.5C338.161 156.5 404.385 160.976 452.309 168.21C476.275 171.828 495.642 176.132 509.007 180.901C515.692 183.287 520.846 185.779 524.319 188.341C527.806 190.913 529.5 193.479 529.5 196Z" stroke="white"/>
</g>
</svg>
